<svg width="800" height="800" viewBox="0 0 800 800" fill="none" xmlns="http://www.w3.org/2000/svg">
  <defs>
    <linearGradient id="bg" x1="120" y1="60" x2="700" y2="760" gradientUnits="userSpaceOnUse">
      <stop stop-color="#F7F0E7"/>
      <stop offset="0.52" stop-color="#E7D1A5"/>
      <stop offset="1" stop-color="#201712"/>
    </linearGradient>
    <linearGradient id="screen" x1="271" y1="188" x2="488" y2="601" gradientUnits="userSpaceOnUse">
      <stop stop-color="#78C6D7"/>
      <stop offset="1" stop-color="#0F2532"/>
    </linearGradient>
    <linearGradient id="accent" x1="544" y1="139" x2="675" y2="294" gradientUnits="userSpaceOnUse">
      <stop stop-color="#FFE3A6"/>
      <stop offset="1" stop-color="#D19C3C"/>
    </linearGradient>
    <filter id="blur" x="0" y="0" width="800" height="800" filterUnits="userSpaceOnUse" color-interpolation-filters="sRGB">
      <feGaussianBlur stdDeviation="45"/>
    </filter>
  </defs>

  <rect width="800" height="800" rx="48" fill="url(#bg)"/>
  <g opacity="0.45" filter="url(#blur)">
    <circle cx="188" cy="146" r="108" fill="#FFFFFF"/>
    <circle cx="662" cy="172" r="96" fill="#F0BF63"/>
    <circle cx="628" cy="640" r="116" fill="#8CC6D4"/>
  </g>

  <rect x="112" y="535" width="210" height="108" rx="26" fill="#F8F4EE" fill-opacity="0.76"/>
  <rect x="132" y="555" width="122" height="18" rx="9" fill="#D9B16A"/>
  <rect x="132" y="585" width="144" height="12" rx="6" fill="#7B6D61" fill-opacity="0.42"/>
  <rect x="132" y="607" width="112" height="12" rx="6" fill="#7B6D61" fill-opacity="0.28"/>

  <g transform="rotate(-14 392 402)">
    <rect x="220" y="132" width="300" height="540" rx="46" fill="#1A1411"/>
    <rect x="240" y="170" width="260" height="464" rx="32" fill="url(#screen)"/>
    <rect x="325" y="150" width="90" height="10" rx="5" fill="#40342D"/>
    <rect x="318" y="584" width="104" height="18" rx="9" fill="#F7E2B5" fill-opacity="0.92"/>
    <circle cx="377" cy="345" r="74" fill="#F4F0E9" fill-opacity="0.18"/>
    <path d="M412 398C391 420 349 423 326 397C304 372 307 329 333 306C354 288 386 285 410 299L382 351L412 398Z" fill="#F7F3ED" fill-opacity="0.78"/>
    <path d="M432 410C415 392 415 360 431 340C446 322 471 313 493 319C479 341 479 376 492 399C471 434 446 430 432 410Z" fill="#F7F3ED" fill-opacity="0.62"/>
  </g>

  <g transform="rotate(11 606 214)">
    <rect x="520" y="116" width="172" height="128" rx="28" fill="#EFE7DD" fill-opacity="0.9"/>
    <rect x="536" y="132" width="140" height="96" rx="20" fill="url(#accent)"/>
    <circle cx="644" cy="161" r="18" fill="#201712" fill-opacity="0.82"/>
    <circle cx="606" cy="200" r="22" fill="#201712" fill-opacity="0.18"/>
    <path d="M566 205H646" stroke="#201712" stroke-opacity="0.22" stroke-width="10" stroke-linecap="round"/>
  </g>

  <g transform="rotate(14 598 560)">
    <rect x="506" y="486" width="176" height="124" rx="28" fill="#ECE5DB" fill-opacity="0.88"/>
    <rect x="528" y="512" width="132" height="72" rx="18" fill="#F7F3ED" fill-opacity="0.86"/>
    <path d="M548 528L588 560L634 522" stroke="#D4A34B" stroke-width="12" stroke-linecap="round" stroke-linejoin="round"/>
    <path d="M532 552H654" stroke="#201712" stroke-opacity="0.16" stroke-width="10" stroke-linecap="round"/>
  </g>

  <text x="112" y="708" fill="#201712" fill-opacity="0.8" font-family="Arial, sans-serif" font-size="24" font-weight="700" letter-spacing="0.24em">
    GADGET69
  </text>
  <text x="112" y="742" fill="#201712" fill-opacity="0.56" font-family="Arial, sans-serif" font-size="18" letter-spacing="0.12em">
    PREMIUM TECH PLACEHOLDER
  </text>
</svg>
